<?xml version='1.0' encoding='utf-8'?>
<svg xmlns="http://www.w3.org/2000/svg" id="Ebene_1" data-name="Ebene 1" viewBox="0 0 800 800"><defs><linearGradient id="Unbenannter_Verlauf_51" x1="508.8994" y1="326.8994" x2="165.8994" y2="669.8994" gradientUnits="userSpaceOnUse"><stop offset="0"/><stop offset="1" stop-opacity="0"/></linearGradient></defs><title>zirkel</title><circle cx="400" cy="400" r="400" style="fill:#1c8adb"/><path d="M346.625,798.625l149.42-148.0144,1.6865-27.8574.2674-.0551-.111-.5383.8177-.1685-.1109-.5383.8177-.1685-.1109-.5383.8177-.1685-.1109-.5383.8177-.1685-.1109-.5383.8177-.1685-.111-.5383.8177-.1685-.1109-.5383.8177-.1685-.5052-2.4516.0932-.0192-.111-.5383.8177-.1685-.1109-.5383.8177-.1685-.111-.5383.8178-.1685-.1109-.5383.8177-.1685-.111-.5383.8178-.1685-.111-.5383.8177-.1685-.1109-.5383.8177-.1685-.111-.5383.8177-.1685-.1109-.5383.8177-.1685-.111-.5383.8178-.1685-.1109-.5383.8177-.1685-.111-.5383.8178-.1685-.111-.5383.8177-.1685-.1109-.5383.8177-.1685-6.8809-33.3916-11.5417,2.3784L448.7811,354.8958h.2365v-.7068h.7068v-.7068h.7068v-.7068h.7068v-.7068h.7068v-.7068h.7068v-.7068h.7068v-.7068h.7068v-.7068h.7068v-.7068h.7068v-.7068h.7068v-.7068h.7068v-.7068H457.5v-.7068h.7068V345h.7068v-.7068h.7068v-.7068h.7068V342.88h.7068v-.7068h.7068v-.7068h.7068v-.7068h.7068v-.7068h.7068v-.7068h.7068v-.7068h.7068v-.7068h.7068v-.7068h.7068v-.7068h.7068v-.7068h.7068v-.7068h.7068v-.7068h.7068v-.7068h.7068v-.7068h.7068v-.7068h.7068v-.7068h.7068v-.7068h.7068v-.7068h.7068V329.45h.7068v-.7068h.7068v-.7068h.7068V327.33h.7068v-.7068h.7068v-.7068h.7068v-.7068h.7068v-.7068h.7068v-.7068h.7068v-.7068h.7068v-.7068h.7068v-.7068h.7068v-.7068h.7068v-.7068h.7068v-.7068h.7068v-.7068h.7068v-.7068h.7068v-.7068h.7068v-.7068h.7068v-.7068h.7068v-.7068H488.6v-11H438.3579l-7.7-37.366a48.0032,48.0032,0,0,0-24.0452-80.9472V140.3751a5.5789,5.5789,0,0,0-5.579-5.5789H392.455a5.5658,5.5658,0,0,0-4.2814,2.0043L13.65,511.3242C60.497,682.2794,174.4,773.7156,346.625,798.625Z" transform="translate(0 0)" style="opacity:0.42;fill:url(#Unbenannter_Verlauf_51)"/><rect x="386.8761" y="134.7962" width="19.7368" height="58.3717" rx="5.5789" ry="5.5789" style="fill:#fff"/><rect x="304.8892" y="304.3137" width="183.7105" height="11" style="fill:#fff"/><rect x="392.1392" y="285.6471" width="9.3333" height="49" style="fill:#fff"/><polygon points="297.444 650.611 303.516 623.787 295.723 622.182 297.444 650.611" style="fill:#fff"/><path d="M500.8881,607.7622l11.5417-2.3783-6.8809-33.3916-11.5417,2.3784-63.3491-307.423a48,48,0,1,0-67.8272,0l-63.3491,307.423L287.94,571.9923l-6.8809,33.3916,11.5417,2.3783,4.6939-22.7787L290.5427,617.75l19.3365,3.9846,70.788-343.5228a48.07,48.07,0,0,0,32.1544,0L483.61,621.7349l19.3365-3.9846-6.34-30.7655ZM368.4873,232.98a28.2572,28.2572,0,1,1,28.2572,28.2571A28.2572,28.2572,0,0,1,368.4873,232.98Z" transform="translate(0 0)" style="fill:#fff"/><polygon points="496.045 650.611 497.766 622.182 489.973 623.787 496.045 650.611" style="fill:#fff"/></svg>