<?xml version='1.0' encoding='utf-8'?>
<svg xmlns="http://www.w3.org/2000/svg" id="Ebene_1" data-name="Ebene 1" viewBox="0 0 800 800"><defs><clipPath id="clip-path"><circle cx="400" cy="400" r="400" style="fill:none"/></clipPath><linearGradient id="Unbenannter_Verlauf_6" x1="380.1682" y1="419.8349" x2="154.8309" y2="645.1722" gradientUnits="userSpaceOnUse"><stop offset="0"/><stop offset="1" stop-opacity="0"/></linearGradient></defs><title>tablet</title><circle cx="400" cy="400" r="400" style="fill:#1c8adb"/><g style="clip-path:url(#clip-path)"><path d="M264.481,784.7311,497.1892,552.0229A8.51,8.51,0,0,0,500,545.495v-290.99c0-4.3658-2.885-7.9063-6.445-7.9063H306.445a5.8538,5.8538,0,0,0-4.4335,2.1777L14.144,536.6439C52.5,675.287,140.9656,751.7542,264.481,784.7311Z" style="opacity:0.42;fill:url(#Unbenannter_Verlauf_6)"/><path d="M500,254.5049c0-4.3658-2.885-7.9063-6.445-7.9063H306.445c-3.56,0-6.445,3.5405-6.445,7.9063v290.99c0,4.3658,2.885,7.9063,6.445,7.9063h187.11c3.56,0,6.445-3.5405,6.445-7.9063ZM400.0025,255.84a2.685,2.685,0,1,1-2.6875,2.6825A2.6828,2.6828,0,0,1,400.0025,255.84Zm-.0038,291.3939a8.5912,8.5912,0,1,1,8.5925-8.5949A8.5924,8.5924,0,0,1,399.9988,547.2335ZM482.5,524H320V271.1429H482.5Z" style="fill:#fff"/></g></svg>